<svg width="1000" height="383" viewBox="0 0 1000 383" fill="none" xmlns="http://www.w3.org/2000/svg">
<path d="M1.2 139.878V0H23.2V61.3466H98.1999V0H120.2V139.878H98.1999V81.1294H23.2V139.878H1.2ZM221.156 61.9461V39.9652H241.956V139.878H221.156V117.897H219.156C214.956 131.286 201.956 142.276 182.556 142.276C155.156 142.276 134.356 118.697 134.356 89.7219C134.356 61.1468 154.556 37.5673 181.956 37.5673C201.356 37.5673 215.156 48.5578 219.156 61.9461H221.156ZM155.156 89.9218C155.156 108.705 169.756 123.892 188.156 123.892C206.356 123.892 221.156 108.705 221.156 89.9218C221.156 71.1381 206.356 55.9513 188.156 55.9513C169.756 55.9513 155.156 71.1381 155.156 89.9218ZM310.236 123.892C323.836 123.892 334.636 116.099 340.036 104.509H361.036C354.836 126.29 334.236 142.276 309.836 142.276C280.036 142.276 256.036 118.697 256.036 89.9218C256.036 61.1468 280.036 37.5673 309.836 37.5673C334.236 37.5673 354.836 53.5534 361.036 75.3345H340.036C334.636 63.7445 323.836 55.9513 310.236 55.9513C291.036 55.9513 276.836 71.1381 276.836 89.7219C276.836 108.705 291.036 123.892 310.236 123.892ZM373.075 139.878V0H393.875V79.9305H405.075L440.275 39.9652H463.275L421.075 89.9218L464.475 139.878H441.475L405.075 99.5134H393.875V139.878H373.075ZM545.179 61.9461V39.9652H565.979V139.878H545.179V117.897H543.179C538.979 131.286 525.979 142.276 506.579 142.276C479.179 142.276 458.379 118.697 458.379 89.7219C458.379 61.1468 478.579 37.5673 505.979 37.5673C525.379 37.5673 539.179 48.5578 543.179 61.9461H545.179ZM479.179 89.9218C479.179 108.705 493.779 123.892 512.179 123.892C530.379 123.892 545.179 108.705 545.179 89.9218C545.179 71.1381 530.379 55.9513 512.179 55.9513C493.779 55.9513 479.179 71.1381 479.179 89.9218ZM577.059 39.9652C602.059 39.9652 600.859 31.9722 600.859 18.9835V9.99132H622.059V20.1825C622.059 29.7741 622.059 37.967 608.459 37.967V39.9652H651.259V58.3492H621.459V110.504C621.459 120.495 622.259 122.094 632.259 122.094H649.259V139.878H625.459C608.259 139.878 600.859 132.884 600.859 115.1V58.3492H577.059V39.9652ZM663.309 0H684.109V61.9461H686.109C690.109 49.1572 700.309 37.5673 719.309 37.5673C744.909 37.5673 763.309 60.5473 763.309 89.9218V139.878H742.509V89.9218C742.509 69.3397 729.709 55.9513 713.909 55.9513C697.109 55.9513 684.109 70.7385 684.109 89.9218V139.878H663.309V0ZM775.371 89.9218C775.371 61.1468 799.371 37.5673 829.171 37.5673C858.971 37.5673 882.971 61.1468 882.971 89.9218C882.971 118.697 858.971 142.276 829.171 142.276C799.371 142.276 775.371 118.697 775.371 89.9218ZM796.171 89.9218C796.171 108.705 810.771 123.892 829.171 123.892C847.571 123.892 862.171 108.705 862.171 89.9218C862.171 71.1381 847.571 55.9513 829.171 55.9513C810.771 55.9513 796.171 71.1381 796.171 89.9218ZM896.121 39.9652H916.921V61.9461H918.921C922.921 49.1572 934.721 37.5673 954.321 37.5673C980.721 37.5673 998.521 60.5473 998.521 89.9218V139.878H977.921V89.9218C977.921 69.3397 964.521 55.9513 947.921 55.9513C930.521 55.9513 916.921 70.7385 916.921 89.9218V139.878H896.121V39.9652ZM61.1999 296.942H22V339.704H0V199.826H61.1999C92.9999 199.826 113.4 217.411 113.4 248.584C113.4 279.757 92.9999 296.942 61.1999 296.942ZM22 219.609V277.159H58.3999C80.7999 277.159 91.3999 267.967 91.3999 248.983C91.3999 229.8 80.7999 219.609 58.3999 219.609H22ZM125.419 339.704V199.826H146.219V339.704H125.419ZM246.937 261.772V239.791H267.737V339.704H246.937V317.724H244.937C240.737 331.112 227.737 342.102 208.337 342.102C180.937 342.102 160.137 318.523 160.137 289.548C160.137 260.973 180.337 237.393 207.737 237.393C227.137 237.393 240.937 248.384 244.937 261.772H246.937ZM180.937 289.748C180.937 308.532 195.537 323.718 213.937 323.718C232.137 323.718 246.937 308.532 246.937 289.748C246.937 270.964 232.137 255.777 213.937 255.777C195.537 255.777 180.937 270.964 180.937 289.748ZM305.817 379.67L324.817 338.705L278.817 239.791H301.617L336.217 314.326L370.817 239.791H393.417L328.617 379.67H305.817ZM404.52 199.826H425.321V261.772H427.321C431.321 248.983 443.921 237.393 464.321 237.393C491.921 237.393 512.121 260.973 512.121 289.548C512.121 318.523 491.321 342.102 463.321 342.102C443.121 342.102 431.521 330.512 427.321 317.724H425.321V339.704H404.52V199.826ZM491.321 289.748C491.321 270.964 476.521 255.777 458.321 255.777C439.921 255.777 425.321 270.964 425.321 289.748C425.321 308.532 439.921 323.718 458.321 323.718C476.521 323.718 491.321 308.532 491.321 289.748ZM524.2 289.748C524.2 260.973 548.2 237.393 578 237.393C607.8 237.393 631.8 260.973 631.8 289.748C631.8 318.523 607.8 342.102 578 342.102C548.2 342.102 524.2 318.523 524.2 289.748ZM545 289.748C545 308.532 559.6 323.718 578 323.718C596.4 323.718 611 308.532 611 289.748C611 270.964 596.4 255.777 578 255.777C559.6 255.777 545 270.964 545 289.748ZM643.729 289.748C643.729 260.973 667.729 237.393 697.529 237.393C727.329 237.393 751.329 260.973 751.329 289.748C751.329 318.523 727.329 342.102 697.529 342.102C667.729 342.102 643.729 318.523 643.729 289.748ZM664.529 289.748C664.529 308.532 679.129 323.718 697.529 323.718C715.929 323.718 730.529 308.532 730.529 289.748C730.529 270.964 715.929 255.777 697.529 255.777C679.129 255.777 664.529 270.964 664.529 289.748ZM765.263 339.704V199.826H786.063V279.757H797.263L832.463 239.791H855.463L813.263 289.748L856.663 339.704H833.663L797.263 299.34H786.063V339.704H765.263Z" fill="#FF7400"/>
</svg>
