<svg viewBox="3.69 0 171 17.76" fill="none" xmlns="http://www.w3.org/2000/svg" preserveAspectRatio="xMinYMid meet">
<path d="M6.45333 17.088C6.21333 17.592 5.94933 17.76 5.39733 17.76C3.95733 17.76 3.69333 17.328 4.31733 16.008L11.7814 0.672C12.0454 0.168 12.3094 0 12.8374 0C14.2774 0 14.5414 0.432001 13.9174 1.752L6.45333 17.088Z" fill="#F48529"/>
<path d="M25.9868 16.1999C25.9868 17.0879 25.6988 17.3999 24.7868 17.3999C23.8988 17.3999 23.5868 17.0879 23.5868 16.1999V12.5999C23.5868 10.7039 24.2108 10.0799 26.1068 10.0799H33.1868C36.7628 10.0799 37.9868 9.14386 37.9868 6.50386V6.47986C37.9868 3.81586 36.7628 2.87986 33.1868 2.87986H24.6668C23.7788 2.87986 23.4668 2.56786 23.4668 1.67986C23.4668 0.767864 23.7788 0.479863 24.6668 0.479863H33.1868C38.2748 0.479863 40.3868 2.59186 40.3868 6.47986V6.50386C40.3868 10.3919 38.2748 12.4799 33.1868 12.4799H26.1068C26.0108 12.4799 25.9868 12.5039 25.9868 12.5999V16.1999ZM58.4993 14.8799C59.4113 14.8799 59.6993 15.1679 59.6993 16.0799C59.6993 16.9679 59.4113 17.2799 58.4993 17.2799H49.9793C45.2993 17.2799 42.7793 14.7599 42.7793 10.0799V1.55986C42.7793 0.647864 43.0913 0.359863 43.9793 0.359863C44.8913 0.359863 45.1793 0.647864 45.1793 1.55986V10.0799C45.1793 13.4159 46.6433 14.8799 49.9793 14.8799H58.4993ZM78.8918 16.1999C78.8918 17.0879 78.6038 17.3999 77.6918 17.3999C76.8038 17.3999 76.4918 17.0879 76.4918 16.1999V7.67987C76.4918 4.34386 75.0278 2.87986 71.6918 2.87986H69.2918C65.9558 2.87986 64.4918 4.34386 64.4918 7.67987V16.1999C64.4918 17.0879 64.2038 17.3999 63.2918 17.3999C62.4038 17.3999 62.0918 17.0879 62.0918 16.1999V7.67987C62.0918 2.99986 64.6118 0.479863 69.2918 0.479863H71.6918C76.3718 0.479863 78.8918 2.99986 78.8918 7.67987V16.1999ZM67.9718 12.4799C67.0838 12.4799 66.7718 12.1679 66.7718 11.2799C66.7718 10.3679 67.0838 10.0799 67.9718 10.0799H73.0118C73.9238 10.0799 74.2118 10.3679 74.2118 11.2799C74.2118 12.1679 73.9238 12.4799 73.0118 12.4799H67.9718ZM81.3591 1.72787C81.1431 0.887863 81.3351 0.359863 82.2471 0.359863C83.1591 0.359863 83.4471 0.359863 83.6391 0.983864L85.2711 5.66386C85.7991 7.12786 86.7351 7.67987 88.6071 7.67987H90.6711C92.9991 7.67987 93.9591 7.12786 94.4871 5.66386L96.1191 0.983864C96.3351 0.359863 96.6231 0.359863 97.5111 0.359863C98.4471 0.359863 98.6151 0.887863 98.3991 1.72787L96.7431 6.45586C95.8551 8.95187 93.9831 10.0319 90.8871 10.0799V16.1999C90.8871 17.0879 90.5991 17.3999 89.6871 17.3999C88.7991 17.3999 88.4871 17.0879 88.4871 16.1999V10.0799C85.8471 10.0559 83.9031 8.97586 83.0151 6.45586L81.3591 1.72787ZM101.102 17.2799H101.054H100.982C100.094 17.2799 99.7821 16.9679 99.7821 16.0799V10.1999C99.7821 8.30386 100.406 7.67987 102.302 7.67987H108.182C112.046 7.67987 112.982 7.07986 112.982 5.32786V5.23186C112.982 3.47986 112.046 2.87986 108.182 2.87986H100.862C99.9741 2.87986 99.6621 2.56786 99.6621 1.67986C99.6621 0.767864 99.9741 0.479863 100.862 0.479863H108.182C113.27 0.479863 115.382 1.91986 115.382 5.23186V5.32786C115.382 6.69586 114.998 7.77586 114.23 8.51986C115.766 9.26386 116.582 10.5599 116.582 12.4799V12.5039C116.582 15.8639 114.062 17.2799 109.382 17.2799H101.102ZM102.182 14.8799H109.382C112.958 14.8799 114.182 14.2319 114.182 12.5039V12.4799C114.182 10.7279 112.958 10.0799 109.382 10.0799H102.302C102.206 10.0799 102.182 10.1039 102.182 10.1999V14.8799ZM118.975 7.67987C118.975 2.99986 121.495 0.479863 126.175 0.479863H128.575C133.255 0.479863 135.775 2.99986 135.775 7.67987V10.0799C135.775 14.7599 133.255 17.2799 128.575 17.2799H126.175C121.495 17.2799 118.975 14.7599 118.975 10.0799V7.67987ZM121.375 10.0799C121.375 13.4159 122.839 14.8799 126.175 14.8799H128.575C131.911 14.8799 133.375 13.4159 133.375 10.0799V7.67987C133.375 4.34386 131.911 2.87986 128.575 2.87986H126.175C122.839 2.87986 121.375 4.34386 121.375 7.67987V10.0799ZM138.17 7.67987C138.17 2.99986 140.69 0.479863 145.37 0.479863H147.77C152.45 0.479863 154.97 2.99986 154.97 7.67987V10.0799C154.97 14.7599 152.45 17.2799 147.77 17.2799H145.37C140.69 17.2799 138.17 14.7599 138.17 10.0799V7.67987ZM140.57 10.0799C140.57 13.4159 142.034 14.8799 145.37 14.8799H147.77C151.106 14.8799 152.57 13.4159 152.57 10.0799V7.67987C152.57 4.34386 151.106 2.87986 147.77 2.87986H145.37C142.034 2.87986 140.57 4.34386 140.57 7.67987V10.0799ZM159.765 16.1999C159.765 17.0879 159.477 17.3999 158.565 17.3999C157.677 17.3999 157.365 17.0879 157.365 16.1999V1.55986C157.365 0.647864 157.677 0.359863 158.565 0.359863C159.477 0.359863 159.765 0.647864 159.765 1.55986V7.67987H166.557C168.885 7.67987 169.845 7.12786 170.373 5.66386L172.005 1.17587C172.221 0.575863 172.509 0.359863 173.157 0.359863C174.333 0.359863 174.693 0.911863 174.285 1.91986L172.629 6.45586C172.245 7.53586 171.717 8.30386 170.973 8.87986C171.717 9.45587 172.245 10.2239 172.629 11.3039L174.285 15.8399C174.693 16.8479 174.333 17.3999 173.157 17.3999C172.509 17.3999 172.221 17.1839 172.005 16.5839L170.373 12.0959C169.845 10.6319 168.885 10.0799 166.557 10.0799H159.765V16.1999Z" fill="white"/>
</svg>
