<svg width="328" height="328" viewBox="0 0 328 328" fill="none" xmlns="http://www.w3.org/2000/svg">
<g clip-path="url(#clip0_514_1592)">
<path d="M91.3867 0.227183C98.0008 -0.48995 104.623 0.720951 111.242 0.709194C140.452 2.15522 169.662 3.4249 198.872 4.90619C209.506 5.15307 220.143 6.24642 230.776 6.09359C229.253 7.16341 227.664 6.82248 226.11 7.16341C192.591 9.17377 159.072 11.4427 125.553 13.3589C114.186 8.60942 102.801 4.05973 91.3867 0.227183Z" fill="white"/>
<path d="M149.898 25.938C172.399 26.9255 194.9 28.0893 217.406 29.0651C241.621 30.4289 265.849 31.0637 290.06 32.7566C265.582 34.6847 241.073 35.4253 216.581 37.0124C200.884 37.753 185.187 38.7053 169.489 39.5047C168.052 39.9044 166.735 38.1997 165.401 37.0947C160.302 32.6508 155.087 29.3708 149.898 25.938Z" fill="white"/>
<path d="M178.556 51.9785C214.371 55.9403 250.204 59.0205 286.058 58.8089C295.12 58.8559 304.182 58.7501 313.248 58.6913C315.476 58.9029 317.716 58.656 319.94 59.3379C302.308 60.7956 284.686 63.1352 267.05 64.1815C239.087 66.3329 211.107 66.0742 183.136 65.7451C182.325 59.6788 180.421 55.5759 178.556 51.9785Z" fill="white"/>
<path d="M182.022 78.2887C215.986 77.4657 249.962 77.8536 283.913 80.6516C297.02 81.6038 310.127 83.0146 323.23 84.3666C324.72 84.6958 326.229 84.5194 327.702 85.4247C291.373 84.5664 255.026 85.0837 218.714 88.0581C204.45 89.1047 190.195 90.5155 175.935 91.9491C178.163 88.1051 180.369 83.9787 182.022 78.2887Z" fill="white"/>
<path d="M152.587 118.024C157.263 113.933 161.852 109.066 166.459 104.529C216.612 106.315 266.773 109.019 316.922 110.842C310.969 112.205 304.963 111.688 298.988 112.182C250.187 114.098 201.389 116.12 152.587 118.024Z" fill="white"/>
<path d="M119.254 144.1C125.35 139.692 131.424 135.06 137.512 130.592C175.374 132.015 213.244 133.79 251.11 135.272C265.482 136.094 279.868 136.165 294.235 137.352C290.242 138.281 286.222 137.516 282.22 138.081C227.897 139.998 173.578 142.289 119.254 144.1Z" fill="white"/>
<path d="M81.522 170.329C88.0713 165.603 94.6465 161.124 101.226 156.773C148.163 158.431 195.099 160.547 242.036 162.311C249.582 162.923 257.138 162.487 264.675 163.545C243.461 164.779 222.237 165.121 201.018 166.049C161.187 167.437 121.353 168.93 81.522 170.329Z" fill="white"/>
<path d="M63.3035 183.037C73.6473 182.191 84.0086 182.662 94.3615 182.521C129.918 182.226 165.47 183.908 201.001 187.458C207.084 188.246 213.193 188.27 219.254 189.821C212.757 190.126 206.233 189.328 199.723 189.575C148.253 189.068 96.7877 191.796 45.3525 196.487C51.2973 191.667 57.2894 187.176 63.3035 183.037Z" fill="white"/>
<path d="M16.5391 222.527C21.1153 217.612 25.7174 212.557 30.4577 209.019C79.9849 211.111 129.516 213.428 179.047 215.509C176.021 216.543 172.947 215.802 169.908 216.425C118.783 218.401 67.6633 220.693 16.5391 222.527Z" fill="white"/>
<path d="M1.01465 248.708C2.68972 243.147 4.81378 238.597 7.13212 235.188C51.0337 236.999 94.9398 239.197 138.846 241.066C143.21 241.513 147.588 241.16 151.953 241.925C139.088 243.112 126.21 243.076 113.34 243.9C75.8967 245.416 38.4577 247.227 1.01465 248.708Z" fill="white"/>
<path d="M0 261.31C34.326 264.907 68.6653 268.094 103.026 267.964C115.749 268.27 128.484 267.389 141.203 268.458C126.3 269.798 111.401 271.621 96.4938 272.737C65.8289 275.594 35.142 275.148 4.45967 274.971C2.58601 271.538 0.785733 267.27 0 261.31Z" fill="white"/>
<path d="M14.5967 287.48C38.7385 286.939 62.8891 286.974 87.0309 288.35C102.422 289.267 117.812 290.631 133.199 292.042C140.055 292.9 146.928 292.959 153.771 294.334C152.838 294.91 151.884 294.569 150.943 294.557C131.084 294.145 111.22 294.193 91.361 294.98C72.2013 295.851 53.05 298.26 33.9117 300.906C32.5994 301.223 31.3302 300.141 30.0652 299.365C24.8544 295.956 19.6564 292.311 14.5967 287.48Z" fill="white"/>
<path d="M57.4751 313.72C101.722 315.377 145.974 318 190.225 319.857C191.675 319.975 193.143 319.587 194.576 320.339C179.889 321.879 165.181 322.29 150.489 323.442C131.066 324.595 111.643 325.97 92.2243 327.134C87.294 326.029 82.4024 323.784 77.4938 322.102C70.8107 319.469 64.1105 317.083 57.4751 313.72Z" fill="white"/>
</g>
<defs>
<clipPath id="clip0_514_1592">
<rect width="328" height="328" fill="white"/>
</clipPath>
</defs>
</svg>
