<svg width="200" height="200" viewBox="0 0 200 200" fill="none" xmlns="http://www.w3.org/2000/svg">
<path d="M196.593 8.76812C194.745 7.57119 193.069 7.81818 191.683 9.19559L190.736 10.1265C190.736 10.1265 149.645 50.5418 108.807 90.7006C92.0875 65.8786 77.5255 44.2627 73.154 37.7746C72.4112 36.6726 70.635 35.6752 68.7588 36.1217C67.1349 36.5064 66.0159 36.9101 64.554 37.7508C63.0873 38.5915 62.173 39.9309 62.2825 41.6741C62.3396 42.5575 62.3682 42.5908 62.3682 42.5908C63.8587 60.2549 63.4063 78.2326 60.6968 95.8302L4.3678 95.5025C1.97255 95.5025 0.410629 96.6092 0.0677695 99.1455C-0.0322312 99.877 -0.0179454 101.354 0.0868173 102.081C0.477296 104.945 2.23445 105.7 4.40113 105.7C4.40113 105.7 14.5393 105.719 58.8587 106.033C55.7158 121.26 50.8015 136.094 43.8967 150.077C42.0824 153.658 39.7157 157.049 37.1347 160.659C35.9299 162.34 35.9442 164.031 37.3776 165.703C38.0633 166.501 39.5871 167.869 40.6728 168.311C42.3252 168.98 44.23 168.548 45.4348 167.361C52.3396 160.545 77.1541 136.165 99.9209 113.779L153.126 175.763C154.302 177.269 156.864 178.58 158.812 177.734C160.517 176.993 161.483 176.252 162.398 174.894C163.583 173.132 163.169 171.379 162.074 169.764C156.669 161.742 138.431 134.669 118.997 105.814C121.783 105.8 131.859 105.748 137.093 105.748C139.374 105.748 140.316 104.37 140.726 102.119C140.878 101.288 140.85 99.5635 140.726 98.7276C140.421 96.6805 139.769 95.3553 137.507 95.0181L121.335 92.7239C159.626 55.054 197.574 17.7356 197.574 17.7356L198.788 16.5386C200.088 15.299 200.436 13.4133 199.369 11.5704C198.874 10.7202 197.422 9.30959 196.593 8.77287V8.76812ZM73.4112 56.4409L95.3637 89.0287L92.0589 88.5632C90.4732 88.3542 89.3494 88.9052 88.7065 90.1971L85.6541 95.7305L69.5111 95.7923C71.9826 82.8255 73.3016 69.6451 73.4064 56.4409H73.4112ZM54.6825 143.931C59.9825 131.681 64.2254 118.971 67.3254 105.99C78.5017 105.947 84.7351 105.928 93.1637 105.9L93.2494 106.004C75.235 123.721 63.0063 135.752 54.6825 143.94V143.931Z" fill="white"/>
<path d="M157.478 105.686H167.907C170.317 105.686 171.26 104.513 171.688 102.057C171.817 101.335 171.75 99.8579 171.688 99.1217C171.455 96.3146 170.064 95.4929 167.907 95.4929H157.478C154.817 95.4929 153.778 96.7041 153.488 99.1217C153.402 99.8532 153.421 101.33 153.488 102.057C153.745 104.845 154.917 105.686 157.478 105.686Z" fill="white"/>
</svg>
