<svg width="415" height="328" viewBox="0 0 415 328" fill="none" xmlns="http://www.w3.org/2000/svg">
<g clip-path="url(#clip0_514_557)">
<path d="M0 0H70.2034C72.2106 3.29937 73.4858 6.95304 75.016 10.4738C97.382 63.6403 119.36 116.973 141.937 170.062C165.989 113.386 189.675 56.5433 214.026 0H292.535C285.094 18.3902 276.667 36.3928 268.816 54.6168C228.84 145.483 188.943 236.393 148.912 327.247C143.933 327.269 138.965 327.28 133.987 327.225C116.41 287.71 98.8681 248.184 81.3367 208.647C78.4536 202.535 76.1028 196.18 72.8648 190.234C72.8537 236.06 73.0644 281.897 72.7539 327.723H0V0Z" fill="white"/>
<path d="M281.435 142.549C285.616 133.47 288.887 123.97 293.61 115.168C309.235 150.365 325.047 185.485 340.539 220.748C309.678 220.87 278.818 220.781 247.969 220.792C258.725 194.552 270.357 168.656 281.435 142.549Z" fill="white"/>
<path d="M235.338 253.997C295.174 254.052 355.01 253.953 414.845 254.041C404.432 278.587 394.319 303.277 383.674 327.723H204.068C205.454 322.198 208.171 317.161 210.355 311.935C218.628 292.593 227.022 273.317 235.338 253.997Z" fill="white"/>
</g>
<defs>
<clipPath id="clip0_514_557">
<rect width="415" height="328" fill="white"/>
</clipPath>
</defs>
</svg>
