<svg width="368" height="328" viewBox="0 0 368 328" fill="none" xmlns="http://www.w3.org/2000/svg">
<g clip-path="url(#clip0_514_659)">
<path d="M162.46 4.14109C178.287 -0.325577 209.613 -0.785737 225.773 0.907596C248.786 4.84093 273.267 11.3209 290.213 28.4143C296.56 34.1609 299.787 45.4676 293.667 52.3209C286.947 57.1476 278.053 54.3743 271.026 51.5876C255.093 43.8276 239.347 35.6276 222.893 28.9876C211.4 24.6809 203.96 20.1411 187.46 19.1411C174.46 18.6411 165.96 18.6411 153.46 20.6411C155.673 20.1344 142.233 15.1211 144.46 14.6411C143.74 13.1078 155.947 11.1343 155.24 9.60094C162.653 7.6676 155.34 6.95442 162.46 4.14109Z" fill="white"/>
<path d="M95.813 39.828C147.92 2.5 166.5 2 188.5 0.500001C179.5 3 162.653 7.6676 155.24 9.60094C155.946 11.1342 156.653 12.668 157.373 14.2013C155.146 14.6813 152.92 15.1613 150.706 15.668C162.92 17.4946 175.56 15.3346 187.533 18.9613C179.88 19.0946 175 18.9613 164 20.5C147.466 21.7 132.58 26.6133 118.5 35C107.873 41.2933 98.2263 50.468 91.733 61.0546C85.8663 74.9746 90.3063 89.9079 93.2663 103.881C96.8796 121.801 107 137.961 120.066 150.561C111.826 126.281 108.986 100.561 110 75.0013C112.693 85.2813 115.773 95.708 122.213 104.375C130.706 115.295 142.533 124.108 147.92 137.228C152.613 148.748 156.08 160.975 163.373 171.228C170.04 179.135 179.12 184.388 187.6 190.081C152.04 188.281 115.946 180.255 85.493 161.121C77.3063 155.201 68.493 149.281 63.293 140.361C66.1196 142.815 69.0796 145.135 72.0663 147.401C70.053 142.348 67.1063 137.748 64.3196 133.121C66.1463 135.175 67.973 137.228 69.7863 139.295C64.973 120.948 69.6263 101.721 68.573 82.9879C74.1996 90.8813 77.733 99.908 80.5863 109.108C81.6663 90.4546 78.2263 70.4146 64.9463 56.3613C77.1063 55.4013 86.9596 47.508 95.813 39.828Z" fill="white"/>
<path d="M0 29.0679C26.7867 40.5612 54.3064 56.5879 68.573 82.9879C69.6263 101.721 64.973 120.948 69.7863 139.295C67.973 137.228 66.1463 135.175 64.3196 133.121C67.1063 137.748 70.053 142.348 72.0663 147.401C69.0796 145.135 66.1196 142.815 63.293 140.361C56.9064 134.121 53.3467 125.815 50.6 117.495C43.2933 95.5612 40.3467 71.5479 25.9467 52.6279C19.6 42.4545 9.33333 36.1345 0 29.0679Z" fill="white"/>
<path d="M314.946 43.188C326.773 52.628 336.16 64.668 343.6 77.7613C352.827 94 355 101.441 360.746 118.081C377.946 176.015 359.146 243.388 314.053 283.695C320.44 251.308 321.493 217.068 310.253 185.575C308.373 180.415 307.594 177.499 304.5 170C300.085 162.526 296.4 156.202 292.9 150.542C286.567 140.299 280.842 132.232 272.494 123.455C265.734 116.215 258.467 109.401 249.56 104.868C242.894 101.121 242.934 92.0813 240.534 85.8013C240.459 86.4169 240.364 87.1844 240.259 88.0293C239.939 90.6208 239.526 93.94 239.294 95.8326C239.294 95.8355 239.293 95.8384 239.293 95.8413C239.346 88.348 239.36 80.8413 240.013 73.388C244.533 69.6146 250.226 67.5347 255.213 64.4413C267.693 71.6013 279.32 80.228 289.56 90.3613C298.226 98.6146 308.5 111.372 318.133 112.148C322.5 112.5 331.44 108.335 332.08 101.441C335.24 80.4147 325.053 60.8413 314.946 43.188Z" fill="white"/>
<path d="M42.1869 119.054C49.9069 146.694 69.5602 170.388 94.8535 183.748C99.4802 186.374 104.574 188.281 108.92 191.428C112.534 197.348 112.507 204.468 113.694 211.121C111.134 210.628 108.56 210.121 106 209.588C108.094 210.894 110.214 212.174 112.187 213.654C112.307 213.921 112.534 214.428 112.654 214.681C86.4268 210.881 64.9469 192.841 51.1735 170.974C52.6535 212.548 71.34 253.7 102.5 281.5C102.5 281.5 109 286.5 113 290.668C109.707 290.575 105.96 290.548 102.667 290.668C105.814 291.868 108.987 293.001 112.16 294.188C112.203 295.132 112.251 296.076 112.3 297.024C112.341 297.83 112.384 298.64 112.427 299.455C110.6 298.548 108.774 297.655 106.987 296.721C86.4935 283.401 69.7468 264.268 58.8668 242.401C40.5468 204.361 35.7869 160.561 42.1869 119.054Z" fill="white"/>
<path d="M108.92 191.428C128.24 198.014 148.293 202.094 167.827 208.001C182.307 212.694 196.107 221.894 202.813 235.974C209.84 251.734 210.653 269.281 211.44 286.254C208.28 272.668 206.28 257.281 194.92 247.721C177.267 234.014 154.067 232.561 132.64 231.268C113.787 229.961 94.9334 229.047 78 219.5C72 215 66.8399 210.374 62.8799 204.694C71.1465 209.068 78.7999 215.188 88.1999 216.934C96.7332 217.961 111.5 218 122.5 216.5C122.167 215.673 113.813 215 111.5 214.5C111.38 214.247 112.307 213.921 112.187 213.654C110.213 212.174 108.093 210.894 106 209.588C108.56 210.121 111.134 210.628 113.694 211.121C112.508 204.468 112.533 197.348 108.92 191.428Z" fill="white"/>
<path d="M255.213 64.4413C224.72 43.0813 191.307 36.3746 155.36 47.4546C146.854 49.5613 137.947 54.2679 135.04 63.1213C129.427 76.7613 136.774 91.7879 146.414 101.521C165.054 121.121 184.947 139.668 201.507 161.148C224.227 190.855 244.827 223.508 252.667 260.575C254.52 271.095 254.547 282.268 251.16 292.481C247.52 303.588 236.307 310.428 225.2 312.068C202.507 317.735 178.6 314.641 156.24 308.961C136.187 304.455 119.54 292.34 102.5 281.5C102.5 281.5 109 286.5 113 290.668C109.707 290.575 105.96 290.548 102.667 290.668C105.814 291.868 108.987 293.001 112.16 294.188C112.203 295.132 112.251 296.076 112.3 297.024C112.341 297.83 112.384 298.64 112.427 299.455C110.6 298.548 108.774 297.655 106.987 296.721C129.72 314.215 158.187 323.295 186.374 326.975C207.054 328.095 229 327.655 248.147 318.775C263.76 311.281 273.467 293.788 272.507 276.588C272.427 238.175 253.134 203.161 230.787 173.135C218.587 158.548 207.6 143.015 196.04 127.935C192.147 121.508 187.534 114.441 189.187 106.521C190.214 100.521 197.5 95 200.8 94.0813C213 90.6852 235.694 100.535 251.014 108.988C267.969 119.569 281.628 134.217 292.9 150.542C286.567 140.299 280.842 132.232 272.494 123.455C265.734 116.215 258.467 109.401 249.56 104.868C242.894 101.121 242.934 92.0813 240.534 85.8013C240.459 86.4169 240.364 87.1844 240.259 88.0293C239.939 90.6208 239.526 93.94 239.294 95.8326C239.294 95.8355 239.293 95.8384 239.293 95.8413C239.346 88.348 239.36 80.8413 240.013 73.388C244.533 69.6146 250.226 67.5347 255.213 64.4413Z" fill="white"/>
</g>
<defs>
<clipPath id="clip0_514_659">
<rect width="368" height="328" fill="white"/>
</clipPath>
</defs>
</svg>
