<svg width="546" height="328" viewBox="0 0 546 328" fill="none" xmlns="http://www.w3.org/2000/svg">
<g clip-path="url(#clip0_514_1542)">
<path d="M270.126 0.178214C273.062 -0.231786 276.068 0.0775119 278.881 0.983827C301.62 7.09068 324.036 14.3268 346.516 21.3184C351.062 22.5268 355.321 26.1089 356.041 30.9498C357.191 40.164 357.45 49.4789 358.767 58.6715C360.479 65.1598 366.759 70.0938 373.485 70.2449C386.189 70.8135 398.907 70.8205 411.619 71.1943C440.89 71.5687 470.154 72.3742 499.418 72.8489C503.971 72.9929 508.237 70.2524 510.237 66.2026C514.56 57.8229 518.747 49.3638 522.998 40.9408C524.459 38.1356 525.639 35.0857 527.833 32.7336C530.782 29.8852 535.688 30.1729 539.005 32.2517C543.178 34.87 545.126 39.8475 545.639 44.5661C546.059 48.1842 544.975 51.7375 543.869 55.1472C539.227 70.5114 533.602 85.6814 525.617 99.6429C523.97 102.505 521.157 104.699 517.898 105.375C483.146 110.749 448.192 114.77 413.396 119.884C399.433 121.934 385.47 124.006 371.529 126.17C368.385 126.473 369.781 130.277 369.788 132.327C376.694 190.749 384.974 248.998 391.98 307.405C392.347 311.44 393.512 315.59 392.361 319.597C391.088 324.114 386.887 327.826 382.096 327.89C309.44 327.905 236.784 327.876 164.127 327.905C159.502 328.063 155.222 324.79 153.668 320.517C152.057 316.77 153.121 312.699 153.546 308.836C159.142 262.442 165.415 216.14 171.329 169.789C172.919 156.345 174.911 142.952 176.17 129.479C176.479 127.94 175.868 126.084 174.033 126.142C141.13 121.035 108.161 116.352 75.1349 112.072C59.5388 110.073 43.9861 107.785 28.4334 105.505C25.0452 104.98 22.0526 102.851 20.2613 99.9591C11.4635 84.5301 5.39925 67.7277 0.529116 50.7017C-0.794521 45.2494 0.378048 39.1138 3.90295 34.7045C6.61496 31.2734 11.5139 29.6838 15.6574 31.2734C18.1536 32.2302 19.4988 34.7189 20.7002 36.9415C25.6134 46.6736 30.5052 56.4203 35.4544 66.1308C37.4255 70.1515 41.605 72.9784 46.1442 72.8489C66.3007 72.5538 86.4574 72.0003 106.614 71.6621C128.44 71.1728 150.272 71.0508 172.084 70.2524C179.637 70.1445 186.802 63.9222 187.284 56.2763C188.234 47.8461 188.658 39.3656 189.651 30.9426C190.428 26.1017 194.629 22.5268 199.211 21.3112C222.778 14.0391 246.229 6.29226 270.126 0.178214ZM265.846 26.0298C256.322 26.8786 247.013 29.6838 238.446 33.9061C231.82 37.1357 225.216 40.4086 218.569 43.5951C216.548 44.5661 214.447 45.6882 213.232 47.6519C211.57 50.1263 211.462 53.2121 211.484 56.0821C211.563 66.6487 211.441 77.2149 211.534 87.7745C211.534 91.3135 213.275 94.8664 216.426 96.6219C232.575 106.124 248.768 115.568 264.911 125.092C267.062 126.315 269.112 127.854 271.565 128.429C273.63 128.875 275.623 127.89 277.363 126.89C294.571 116.712 311.85 106.663 329.057 96.5064C332.373 94.6291 333.92 90.7379 333.819 87.0624C333.841 76.9705 333.776 66.8861 333.841 56.8012C333.855 53.7371 333.913 50.4356 332.165 47.767C330.899 45.6379 328.618 44.4798 326.468 43.4512C319.331 40.0561 312.267 36.51 305.152 33.0789C292.959 27.3677 279.277 24.7135 265.846 26.0298Z" fill="white"/>
</g>
<defs>
<clipPath id="clip0_514_1542">
<rect width="546" height="328" fill="white"/>
</clipPath>
</defs>
</svg>
