<svg width="228" height="328" viewBox="0 0 228 328" fill="none" xmlns="http://www.w3.org/2000/svg">
<g clip-path="url(#clip0_514_1586)">
<path d="M176.522 16.0425C193.169 10.7651 209.689 5.08821 226.399 0C226.462 59.2292 226.462 118.458 226.42 177.688C226.945 189.168 217.048 199.618 205.434 198.965C162.79 199.176 120.104 198.987 77.4603 199.071C77.2716 224.869 77.6909 250.688 77.2507 276.487C76.5588 291.415 66.0342 304.556 52.2387 309.645C34.9213 315.637 17.394 320.998 0.0136857 326.781C0.0136857 270.012 -0.00727987 213.243 0.0346511 156.473C-0.678176 145.203 9.72073 135.363 20.7276 135.531C63.4763 135.321 106.246 135.531 148.995 135.426C149.079 107.378 148.911 79.3087 149.079 51.2394C149.099 35.176 161.196 20.2056 176.522 16.0425Z" fill="white"/>
<path d="M34.8162 67.4084C47.123 58.3884 62.4907 55.1294 77.4812 54.4565C77.4812 72.3915 77.565 90.3473 77.4601 108.303C77.8585 117.239 70.0174 126.175 60.8136 125.481C40.6238 125.439 20.434 125.481 0.244153 125.439C1.87946 102.059 15.0877 79.9607 34.8162 67.4084Z" fill="white"/>
<path d="M149.036 227.834C148.386 218.751 156.395 210.026 165.662 210.719C185.894 210.445 206.147 210.677 226.399 210.634C224.868 233.175 213.043 254.515 195.077 268.056C181.637 277.538 165.493 282.9 149.036 283.195C149.015 264.734 148.994 246.273 149.036 227.834Z" fill="white"/>
</g>
<defs>
<clipPath id="clip0_514_1586">
<rect width="228" height="328" fill="white"/>
</clipPath>
</defs>
</svg>
