<svg width="240" height="328" viewBox="0 0 240 328" fill="none" xmlns="http://www.w3.org/2000/svg">
<g clip-path="url(#clip0_514_1458)">
<path d="M0.0657568 35.9312C19.2786 23.9473 38.5409 12.0456 57.7127 0C78.3228 32.5941 98.4933 65.4718 119.009 98.1275C119.309 98.5632 119.621 98.9906 119.942 99.4221C140.708 66.3307 161.138 33.0256 182.015 0.00410941C201.224 11.9757 220.465 23.9062 239.645 35.9271C224.707 60.3593 209.377 84.5614 194.323 108.928C193.152 110.563 192.302 112.717 190.3 113.514C182.796 116.329 175.583 120.304 169.858 125.987C163.443 132.057 158.146 139.475 155.117 147.806C152.458 154.394 150.95 161.417 150.251 168.473C149.556 178.986 150.173 189.803 153.724 199.81C156.81 208.712 161.438 217.313 168.457 223.737C178.439 234.073 192.988 238.758 207.059 239.423C217.852 256.997 228.878 274.426 239.719 291.966C220.474 303.884 201.318 315.959 182.044 327.831C178.32 324.075 175.156 319.83 171.757 315.79C165.732 308.52 159.835 301.143 153.798 293.881C150.44 289.841 147.904 285.23 145.081 280.825C135.998 266.182 126.756 251.633 117.801 236.912C122.095 236.843 126.398 236.818 130.697 236.818C130.722 195.544 130.681 154.274 130.722 113.001C121.545 112.565 112.355 112.281 103.178 112.77C103.166 154.102 103.158 195.433 103.182 236.769C106.787 237.048 110.399 237.241 113.991 237.677C95.4151 267.863 76.4406 297.806 57.8729 328C38.623 315.901 19.2704 303.971 0 291.9C11.1085 274.208 22.1431 256.471 33.1366 238.712C33.5188 238.154 34.0037 237.595 34.7024 237.455C40.8998 236.501 47.1918 236.892 53.4385 236.822C53.4796 229.022 53.3564 221.217 53.5043 213.421C53.6892 210.569 53.6851 207.672 54.5153 204.914C56.077 201.47 58.3209 198.404 60.2812 195.187C65.5129 186.77 70.8185 178.402 75.968 169.936C69.0226 158.659 61.9128 147.485 55.0331 136.167C65.8416 136.114 76.6543 136.155 87.4669 136.159C80.4928 124.113 73.498 112.084 66.565 100.018C57.7291 84.36 48.511 68.9321 39.7327 53.2454C35.7463 60.4949 31.5174 67.6129 27.4487 74.8131C25.6281 77.3858 24.724 80.5626 22.4637 82.8189C19.4143 77.1433 16.8991 71.2048 14.0059 65.4512C9.37836 55.6044 4.4426 45.8972 0.0657568 35.9312Z" fill="white"/>
</g>
<defs>
<clipPath id="clip0_514_1458">
<rect width="240" height="328" fill="white"/>
</clipPath>
</defs>
</svg>
