<svg width="420" height="358" viewBox="0 0 420 358" fill="none" xmlns="http://www.w3.org/2000/svg">
<path d="M412.842 1.61719C408.962 -0.902805 405.442 -0.382806 402.532 2.51719L400.542 4.47719C400.542 4.47719 314.252 89.5672 228.492 174.117C193.382 121.857 162.802 76.3472 153.622 62.6872C152.062 60.3672 148.332 58.2672 144.392 59.2072C140.982 60.0172 138.632 60.8672 135.562 62.6372C132.482 64.4072 130.562 67.2272 130.792 70.8972C130.912 72.7572 130.972 72.8272 130.972 72.8272C134.102 110.017 133.152 147.867 127.462 184.917L9.17231 184.227C4.14231 184.227 0.862315 186.557 0.142315 191.897C-0.067685 193.437 -0.037685 196.547 0.182315 198.077C1.00231 204.107 4.69231 205.697 9.24231 205.697C9.24231 205.697 30.5323 205.737 123.602 206.397C117.002 238.457 106.682 269.687 92.1823 299.127C88.3723 306.667 83.4023 313.807 77.9823 321.407C75.4523 324.947 75.4823 328.507 78.4923 332.027C79.9323 333.707 83.1323 336.587 85.4123 337.517C88.8823 338.927 92.8823 338.017 95.4123 335.517C109.912 321.167 162.022 269.837 209.832 222.707L321.562 353.207C324.032 356.377 329.412 359.137 333.502 357.357C337.082 355.797 339.112 354.237 341.032 351.377C343.522 347.667 342.652 343.977 340.352 340.577C329.002 323.687 290.702 266.687 249.892 205.937C255.742 205.907 276.902 205.797 287.892 205.797C292.682 205.797 294.662 202.897 295.522 198.157C295.842 196.407 295.782 192.777 295.522 191.017C294.882 186.707 293.512 183.917 288.762 183.207L254.802 178.377C335.212 99.0672 414.902 20.4972 414.902 20.4972L417.452 17.9772C420.182 15.3672 420.912 11.3972 418.672 7.51719C417.632 5.72719 414.582 2.75719 412.842 1.62719V1.61719ZM154.162 101.987L200.262 170.597L193.322 169.617C189.992 169.177 187.632 170.337 186.282 173.057L179.872 184.707L145.972 184.837C151.162 157.537 153.932 129.787 154.152 101.987H154.162ZM114.832 286.187C125.962 260.397 134.872 233.637 141.382 206.307C164.852 206.217 177.942 206.177 195.642 206.117L195.822 206.337C157.992 243.637 132.312 268.967 114.832 286.207V286.187Z" fill="black"/>
<path d="M330.702 205.667H352.602C357.662 205.667 359.642 203.197 360.542 198.027C360.812 196.507 360.672 193.397 360.542 191.847C360.052 185.937 357.132 184.207 352.602 184.207H330.702C325.112 184.207 322.932 186.757 322.322 191.847C322.142 193.387 322.182 196.497 322.322 198.027C322.862 203.897 325.322 205.667 330.702 205.667Z" fill="black"/>
</svg>
